<svg width="69" height="69" viewBox="0 0 69 69" fill="none" xmlns="http://www.w3.org/2000/svg">
<path d="M56.6245 35.9651C63.0467 43.6387 59.9063 55.9157 50.5768 59.5392C49.7342 59.8659 47.6566 60.5095 46.8195 60.5095H10.5981V38.4023L20.7424 48.3549L46.4083 48.281C48.3295 48.1265 49.086 45.9466 47.9991 44.452L29.6468 26.0271H46.679L56.6245 35.9651ZM55.7115 8.5027C56.5332 8.47906 57.9542 8.50274 58.4287 8.50267L58.4287 30.6151L48.3208 20.7717L23.039 20.7384C21.2747 20.8122 20.0661 22.2056 20.682 23.9408C20.8963 24.5457 22.5509 26.1989 23.1098 26.7954C28.2321 32.2624 33.8675 37.2818 39.0343 42.7113L39.2415 43.1298H22.4873L11.9921 32.6296C5.31254 23.5183 10.3322 9.84919 21.9324 8.65054C33.1878 8.56572 44.8118 8.5027 55.7115 8.5027Z" fill="#356EC3"/>
</svg>
