<svg width="220" height="43" viewBox="0 0 220 43" fill="none" xmlns="http://www.w3.org/2000/svg">
<path d="M39.3269 22.6864C44.6302 29.023 42.0369 39.1609 34.3329 42.1531C33.6371 42.4229 31.9214 42.9543 31.2303 42.9543H1.31963V24.6989L9.69653 32.9175L30.8907 32.8564C32.4772 32.7289 33.1019 30.9287 32.2043 29.6945L17.0495 14.4798H31.1142L39.3269 22.6864ZM38.5729 0.00868415C39.2515 -0.0108408 40.425 0.00871088 40.8168 0.00865959L40.8167 18.2684L32.4699 10.1401L11.593 10.1126C10.1361 10.1735 9.13805 11.3241 9.64667 12.757C9.82358 13.2565 11.1899 14.6217 11.6515 15.1142C15.8813 19.6288 20.5348 23.7736 24.8014 28.2571L24.9725 28.6027H11.1374L2.47076 19.9319C-3.045 12.4081 1.10012 1.12057 10.6792 0.13076C19.9736 0.0607222 29.5723 0.00868415 38.5729 0.00868415Z" fill="#356EC3"/>
<path d="M212.27 21.092V18.4608L212.201 18.0298V13.6292C212.201 12.616 211.914 11.8372 211.339 11.2928C210.78 10.7484 209.941 10.4762 208.822 10.4762C208.05 10.4762 207.317 10.6047 206.621 10.8618C205.926 11.1189 205.336 11.4591 204.852 11.8826L204.126 10.6803C204.731 10.1662 205.457 9.77301 206.304 9.50081C207.151 9.21349 208.043 9.06982 208.98 9.06982C210.523 9.06982 211.71 9.45544 212.542 10.2267C213.389 10.9828 213.812 12.1396 213.812 13.6972V21.092H212.27ZM208.164 21.2055C207.272 21.2055 206.493 21.0618 205.827 20.7745C205.177 20.472 204.678 20.0637 204.33 19.5496C203.982 19.0203 203.809 18.4154 203.809 17.7349C203.809 17.1149 203.952 16.5554 204.24 16.0563C204.542 15.5422 205.026 15.1339 205.691 14.8314C206.372 14.5138 207.279 14.3551 208.413 14.3551H212.519V15.5573H208.459C207.309 15.5573 206.508 15.7614 206.054 16.1697C205.616 16.578 205.396 17.0846 205.396 17.6895C205.396 18.37 205.661 18.9144 206.19 19.3227C206.72 19.731 207.461 19.9352 208.413 19.9352C209.321 19.9352 210.099 19.731 210.75 19.3227C211.415 18.8993 211.899 18.2944 212.201 17.5081L212.564 18.6195C212.262 19.4059 211.733 20.0335 210.977 20.5023C210.236 20.9711 209.298 21.2055 208.164 21.2055Z" fill="#1C252D"/>
<path d="M194.942 21.2053C193.929 21.2053 193.044 21.0163 192.288 20.6382C191.532 20.2602 190.942 19.6931 190.519 18.937C190.11 18.1809 189.906 17.2357 189.906 16.1015V9.18311H191.517V15.9201C191.517 17.1904 191.827 18.1506 192.447 18.8009C193.082 19.436 193.967 19.7536 195.101 19.7536C195.932 19.7536 196.651 19.5872 197.256 19.2545C197.876 18.9067 198.344 18.4077 198.662 17.7574C198.995 17.1072 199.161 16.3284 199.161 15.421V9.18311H200.772V21.0919H199.229V17.8255L199.479 18.4153C199.101 19.2923 198.511 19.9804 197.709 20.4794C196.923 20.9634 196.001 21.2053 194.942 21.2053Z" fill="#1C252D"/>
<path d="M179.841 21.2053C178.707 21.2053 177.687 20.9482 176.779 20.434C175.887 19.9199 175.184 19.2091 174.67 18.3018C174.156 17.3793 173.898 16.3208 173.898 15.1261C173.898 13.9163 174.156 12.8578 174.67 11.9504C175.184 11.0431 175.887 10.3399 176.779 9.84086C177.687 9.3267 178.707 9.06963 179.841 9.06963C180.885 9.06963 181.815 9.30402 182.632 9.77281C183.463 10.2416 184.121 10.9297 184.605 11.837C185.104 12.7292 185.354 13.8256 185.354 15.1261C185.354 16.4115 185.112 17.5079 184.628 18.4152C184.144 19.3225 183.486 20.0182 182.654 20.5021C181.838 20.9709 180.9 21.2053 179.841 21.2053ZM179.955 19.7762C180.802 19.7762 181.558 19.5872 182.223 19.2091C182.904 18.8159 183.433 18.2715 183.811 17.5759C184.204 16.8652 184.401 16.0486 184.401 15.1261C184.401 14.1885 184.204 13.3719 183.811 12.6763C183.433 11.9807 182.904 11.4438 182.223 11.0658C181.558 10.6726 180.802 10.476 179.955 10.476C179.123 10.476 178.375 10.6726 177.709 11.0658C177.044 11.4438 176.515 11.9807 176.121 12.6763C175.728 13.3719 175.532 14.1885 175.532 15.1261C175.532 16.0486 175.728 16.8652 176.121 17.5759C176.515 18.2715 177.044 18.8159 177.709 19.2091C178.375 19.5872 179.123 19.7762 179.955 19.7762ZM184.446 21.0918V17.5079L184.605 15.1034L184.378 12.699V4.26074H185.989V21.0918H184.446Z" fill="#1C252D"/>
<path d="M169.637 21.0918V18.4606L169.569 18.0296V13.629C169.569 12.6158 169.281 11.837 168.707 11.2926C168.147 10.7482 167.308 10.476 166.189 10.476C165.418 10.476 164.684 10.6045 163.989 10.8616C163.293 11.1187 162.703 11.4589 162.219 11.8824L161.493 10.6801C162.098 10.166 162.824 9.77281 163.671 9.5006C164.518 9.21328 165.41 9.06962 166.348 9.06962C167.89 9.06962 169.077 9.45524 169.909 10.2265C170.756 10.9826 171.179 12.1394 171.179 13.697V21.0918H169.637ZM165.531 21.2052C164.639 21.2052 163.86 21.0616 163.195 20.7743C162.544 20.4718 162.045 20.0635 161.698 19.5494C161.35 19.0201 161.176 18.4152 161.176 17.7347C161.176 17.1147 161.319 16.5551 161.607 16.0561C161.909 15.542 162.393 15.1337 163.059 14.8312C163.739 14.5136 164.646 14.3549 165.781 14.3549H169.886V15.5571H165.826C164.677 15.5571 163.875 15.7612 163.421 16.1695C162.983 16.5778 162.764 17.0844 162.764 17.6893C162.764 18.3698 163.028 18.9142 163.558 19.3225C164.087 19.7308 164.828 19.935 165.781 19.935C166.688 19.935 167.467 19.7308 168.117 19.3225C168.782 18.8991 169.266 18.2942 169.569 17.5079L169.932 18.6193C169.629 19.4057 169.1 20.0333 168.344 20.5021C167.603 20.9709 166.665 21.2052 165.531 21.2052ZM164.919 7.323L168.026 4.51025H170.181L166.506 7.323H164.919Z" fill="#1C252D"/>
<path d="M147.02 21.0918V5.21338H152.963C154.308 5.21338 155.465 5.43265 156.433 5.8712C157.401 6.29462 158.142 6.91464 158.656 7.73124C159.185 8.53272 159.45 9.50811 159.45 10.6574C159.45 11.7764 159.185 12.7443 158.656 13.5609C158.142 14.3624 157.401 14.9824 156.433 15.4209C155.465 15.8595 154.308 16.0787 152.963 16.0787H147.95L148.698 15.2848V21.0918H147.02ZM148.698 15.4209L147.95 14.6043H152.917C154.505 14.6043 155.707 14.2641 156.524 13.5836C157.356 12.8879 157.771 11.9125 157.771 10.6574C157.771 9.38713 157.356 8.40418 156.524 7.70855C155.707 7.01293 154.505 6.66512 152.917 6.66512H147.95L148.698 5.8712V15.4209Z" fill="#1C252D"/>
<path d="M133.727 21.0918V4.26074H137.265V21.0918H133.727Z" fill="#356EC3"/>
<path d="M125.925 21.2732C124.533 21.2732 123.309 21.001 122.25 20.4566C121.207 19.9121 120.398 19.1712 119.823 18.2336C119.248 17.2809 118.961 16.1996 118.961 14.9898C118.961 13.7649 119.241 12.6837 119.8 11.7461C120.375 10.7934 121.154 10.0524 122.137 9.52314C123.12 8.97874 124.231 8.70654 125.471 8.70654C126.666 8.70654 127.739 8.96362 128.692 9.47778C129.66 9.97681 130.424 10.7027 130.983 11.6554C131.543 12.593 131.822 13.7196 131.822 15.0352C131.822 15.1713 131.815 15.3301 131.8 15.5116C131.785 15.6779 131.77 15.8367 131.754 15.9879H121.842V13.9237H129.894L128.533 14.5362C128.533 13.901 128.405 13.3491 128.148 12.8803C127.891 12.4115 127.535 12.0486 127.082 11.7915C126.628 11.5193 126.099 11.3832 125.494 11.3832C124.889 11.3832 124.352 11.5193 123.883 11.7915C123.43 12.0486 123.074 12.4191 122.817 12.903C122.56 13.3718 122.432 13.9313 122.432 14.5815V15.1259C122.432 15.7913 122.575 16.3811 122.862 16.8953C123.165 17.3943 123.581 17.7799 124.11 18.0521C124.654 18.3092 125.29 18.4377 126.015 18.4377C126.666 18.4377 127.233 18.3394 127.717 18.1428C128.216 17.9463 128.669 17.6514 129.078 17.2582L130.96 19.2997C130.401 19.9348 129.698 20.4263 128.851 20.7741C128.004 21.1068 127.029 21.2732 125.925 21.2732Z" fill="#356EC3"/>
<path d="M109.901 21.2733C108.888 21.2733 107.98 21.0767 107.179 20.6836C106.392 20.2904 105.78 19.6931 105.341 18.8916C104.903 18.075 104.684 17.0391 104.684 15.7839V8.88818H108.222V15.2622C108.222 16.2754 108.434 17.024 108.857 17.5079C109.296 17.9767 109.908 18.2111 110.695 18.2111C111.239 18.2111 111.723 18.0977 112.146 17.8708C112.57 17.6289 112.903 17.2659 113.145 16.782C113.386 16.283 113.507 15.663 113.507 14.922V8.88818H117.046V21.0919H113.689V17.7347L114.301 18.7101C113.893 19.557 113.288 20.1996 112.487 20.6382C111.7 21.0616 110.838 21.2733 109.901 21.2733Z" fill="#356EC3"/>
<path d="M81.4141 21.0917V8.88801H84.7939V12.2225L84.1588 11.2471C84.5822 10.4154 85.1795 9.78779 85.9507 9.36436C86.7371 8.92582 87.6293 8.70654 88.6274 8.70654C89.7464 8.70654 90.7218 8.99387 91.5536 9.56851C92.4004 10.128 92.9599 10.99 93.2321 12.1544L91.9845 11.8142C92.3928 10.8615 93.0431 10.1054 93.9353 9.54583C94.8426 8.98631 95.8785 8.70654 97.0429 8.70654C98.0108 8.70654 98.8652 8.90313 99.6062 9.29631C100.362 9.67437 100.952 10.2641 101.375 11.0656C101.814 11.852 102.033 12.8652 102.033 14.1052V21.0917H98.4947V14.6496C98.4947 13.6666 98.2905 12.9408 97.8822 12.472C97.4739 12.0032 96.8993 11.7688 96.1583 11.7688C95.6441 11.7688 95.1829 11.8898 94.7746 12.1317C94.3663 12.3586 94.0487 12.7064 93.8219 13.1752C93.5951 13.644 93.4816 14.2413 93.4816 14.9672V21.0917H89.943V14.6496C89.943 13.6666 89.7389 12.9408 89.3306 12.472C88.9374 12.0032 88.3703 11.7688 87.6293 11.7688C87.1152 11.7688 86.6539 11.8898 86.2456 12.1317C85.8373 12.3586 85.5198 12.7064 85.2929 13.1752C85.0661 13.644 84.9527 14.2413 84.9527 14.9672V21.0917H81.4141Z" fill="#356EC3"/>
<path d="M75.3537 21.0917V18.7099L75.1268 18.1882V13.9237C75.1268 13.1676 74.8924 12.5778 74.4236 12.1544C73.97 11.731 73.2668 11.5193 72.3141 11.5193C71.6638 11.5193 71.0211 11.6251 70.386 11.8369C69.766 12.0334 69.2367 12.3056 68.7982 12.6535L67.5279 10.181C68.1933 9.71217 68.9947 9.34924 69.9323 9.09216C70.8699 8.83508 71.8226 8.70654 72.7904 8.70654C74.6505 8.70654 76.0947 9.14509 77.123 10.0222C78.1513 10.8993 78.6654 12.2678 78.6654 14.1279V21.0917H75.3537ZM71.6336 21.2732C70.6809 21.2732 69.8643 21.1144 69.1838 20.7968C68.5033 20.4641 67.9816 20.018 67.6186 19.4585C67.2557 18.899 67.0742 18.2714 67.0742 17.5758C67.0742 16.8499 67.2481 16.2148 67.5959 15.6704C67.9589 15.1259 68.526 14.7025 69.2972 14.4001C70.0684 14.0825 71.0741 13.9237 72.3141 13.9237H75.5578V15.9879H72.6997C71.868 15.9879 71.2933 16.124 70.9758 16.3962C70.6733 16.6684 70.5221 17.0087 70.5221 17.417C70.5221 17.8706 70.696 18.2336 71.0438 18.5058C71.4068 18.7629 71.8982 18.8914 72.5182 18.8914C73.108 18.8914 73.6373 18.7553 74.1061 18.4831C74.5749 18.1958 74.9151 17.7799 75.1268 17.2355L75.6712 18.8687C75.4142 19.6551 74.9454 20.2524 74.2649 20.6607C73.5844 21.069 72.7073 21.2732 71.6336 21.2732Z" fill="#356EC3"/>
<path d="M59.3241 21.3642C58.0539 21.3642 56.8365 21.1979 55.6721 20.8652C54.5077 20.5174 53.5701 20.0712 52.8594 19.5268L54.107 16.7595C54.7875 17.2434 55.5889 17.6441 56.5114 17.9617C57.449 18.2641 58.3941 18.4154 59.3468 18.4154C60.0727 18.4154 60.6549 18.3473 61.0935 18.2112C61.5471 18.06 61.8798 17.8558 62.0915 17.5988C62.3032 17.3417 62.4091 17.0468 62.4091 16.7141C62.4091 16.2907 62.2427 15.958 61.9101 15.716C61.5774 15.4589 61.1388 15.2548 60.5944 15.1036C60.05 14.9372 59.4451 14.786 58.7797 14.6499C58.1295 14.4987 57.4717 14.3172 56.8063 14.1055C56.156 13.8938 55.5587 13.6216 55.0143 13.2889C54.4699 12.9562 54.0238 12.5177 53.676 11.9733C53.3433 11.4289 53.1769 10.7332 53.1769 9.88639C53.1769 8.97905 53.4189 8.15489 53.9028 7.4139C54.4018 6.65778 55.1428 6.06045 56.1258 5.62191C57.1239 5.16824 58.3714 4.94141 59.8686 4.94141C60.8666 4.94141 61.8496 5.06238 62.8174 5.30434C63.7852 5.53117 64.6396 5.87899 65.3806 6.34778L64.2464 9.13784C63.5055 8.71441 62.7645 8.40441 62.0235 8.20782C61.2825 7.99611 60.5566 7.89025 59.8459 7.89025C59.1351 7.89025 58.5529 7.97342 58.0992 8.13977C57.6456 8.30611 57.3204 8.52539 57.1239 8.79759C56.9273 9.05466 56.829 9.35711 56.829 9.70492C56.829 10.1132 56.9953 10.4459 57.328 10.703C57.6607 10.9449 58.0992 11.1415 58.6436 11.2928C59.188 11.444 59.7854 11.5952 60.4356 11.7464C61.101 11.8977 61.7588 12.0716 62.4091 12.2681C63.0745 12.4647 63.6794 12.7294 64.2238 13.0621C64.7682 13.3948 65.2067 13.8333 65.5394 14.3777C65.8872 14.9221 66.0611 15.6102 66.0611 16.4419C66.0611 17.3341 65.8116 18.1507 65.3126 18.8917C64.8135 19.6327 64.065 20.23 63.0669 20.6837C62.084 21.1374 60.8364 21.3642 59.3241 21.3642Z" fill="#356EC3"/>
<path d="M160.094 38.6069V31.002H163.06C164.045 31.002 164.82 31.2373 165.385 31.7081C165.95 32.1717 166.232 32.8199 166.232 33.6528C166.232 34.2033 166.105 34.6777 165.852 35.076C165.598 35.4671 165.236 35.7677 164.765 35.9777C164.295 36.1878 163.726 36.2928 163.06 36.2928H160.691L161.18 35.793V38.6069H160.094ZM165.178 38.6069L163.244 35.8474H164.407L166.362 38.6069H165.178ZM161.18 35.9017L160.691 35.3693H163.027C163.722 35.3693 164.247 35.2209 164.602 34.9239C164.965 34.6197 165.146 34.196 165.146 33.6528C165.146 33.1096 164.965 32.6895 164.602 32.3926C164.247 32.0956 163.722 31.9471 163.027 31.9471H160.691L161.18 31.4039V35.9017Z" fill="#1C252D"/>
<path d="M150.531 38.6069V31.002H155.898V31.9471H151.618V37.6617H156.05V38.6069H150.531ZM151.52 35.2064V34.2829H155.431V35.2064H151.52Z" fill="#1C252D"/>
<path d="M139.434 38.6069V31.002H140.324L145.355 37.2488H144.887V31.002H145.974V38.6069H145.083L140.053 32.36H140.52V38.6069H139.434Z" fill="#1C252D"/>
<path d="M132.193 38.6938C131.606 38.6938 131.067 38.5996 130.574 38.4113C130.082 38.2158 129.654 37.9442 129.292 37.5965C128.93 37.2416 128.648 36.8288 128.445 36.358C128.242 35.8872 128.141 35.3693 128.141 34.8044C128.141 34.2395 128.242 33.7216 128.445 33.2508C128.648 32.7801 128.93 32.3708 129.292 32.0232C129.662 31.6683 130.093 31.3967 130.585 31.2084C131.078 31.0128 131.621 30.915 132.215 30.915C132.816 30.915 133.366 31.0128 133.866 31.2084C134.366 31.4039 134.789 31.6973 135.137 32.0884L134.464 32.7619C134.152 32.4577 133.812 32.2368 133.442 32.0992C133.08 31.9544 132.685 31.8819 132.258 31.8819C131.824 31.8819 131.418 31.9544 131.041 32.0992C130.672 32.2441 130.35 32.4469 130.074 32.7076C129.806 32.9684 129.596 33.2798 129.444 33.6419C129.299 33.9968 129.227 34.3843 129.227 34.8044C129.227 35.2172 129.299 35.6047 129.444 35.9669C129.596 36.3218 129.806 36.6332 130.074 36.9012C130.35 37.1619 130.672 37.3647 131.041 37.5096C131.411 37.6544 131.813 37.7269 132.247 37.7269C132.653 37.7269 133.04 37.6653 133.41 37.5422C133.786 37.4118 134.134 37.1981 134.453 36.9012L135.072 37.7269C134.695 38.0456 134.254 38.2882 133.747 38.4548C133.247 38.6141 132.729 38.6938 132.193 38.6938ZM135.072 37.7269L134.029 37.5856V34.761H135.072V37.7269Z" fill="#1C252D"/>
<path d="M123.117 38.6069V31.002H124.204V38.6069H123.117Z" fill="#1C252D"/>
<path d="M116.302 38.6938C115.723 38.6938 115.169 38.6069 114.64 38.433C114.111 38.252 113.695 38.0202 113.391 37.7377L113.793 36.8903C114.082 37.1438 114.452 37.3539 114.901 37.5204C115.35 37.687 115.817 37.7703 116.302 37.7703C116.744 37.7703 117.103 37.7196 117.378 37.6182C117.653 37.5168 117.856 37.3792 117.986 37.2054C118.117 37.0243 118.182 36.8215 118.182 36.597C118.182 36.3363 118.095 36.1262 117.921 35.9669C117.754 35.8075 117.533 35.6808 117.258 35.5866C116.99 35.4852 116.693 35.3983 116.367 35.3259C116.041 35.2535 115.712 35.1702 115.379 35.076C115.053 34.9746 114.752 34.8479 114.477 34.6958C114.209 34.5437 113.992 34.3409 113.825 34.0874C113.659 33.8266 113.575 33.4935 113.575 33.0879C113.575 32.6968 113.677 32.3382 113.88 32.0123C114.09 31.6792 114.408 31.4148 114.836 31.2192C115.27 31.0164 115.821 30.915 116.487 30.915C116.929 30.915 117.367 30.973 117.801 31.0889C118.236 31.2047 118.613 31.3713 118.931 31.5886L118.573 32.4577C118.247 32.2405 117.903 32.0847 117.541 31.9906C117.179 31.8892 116.827 31.8385 116.487 31.8385C116.06 31.8385 115.708 31.8928 115.433 32.0015C115.158 32.1101 114.955 32.255 114.825 32.436C114.702 32.6171 114.64 32.8199 114.64 33.0444C114.64 33.3124 114.723 33.5261 114.89 33.6854C115.064 33.8447 115.285 33.9715 115.553 34.0656C115.828 34.1598 116.128 34.2467 116.454 34.3264C116.78 34.3988 117.106 34.4821 117.432 34.5763C117.765 34.6704 118.066 34.7935 118.334 34.9456C118.609 35.0977 118.83 35.3005 118.997 35.554C119.163 35.8075 119.246 36.1335 119.246 36.5318C119.246 36.9157 119.141 37.2742 118.931 37.6074C118.721 37.9333 118.395 38.1976 117.954 38.4004C117.519 38.596 116.969 38.6938 116.302 38.6938Z" fill="#1C252D"/>
<path d="M104.527 38.6069V31.002H109.894V31.9471H105.614V37.6617H110.046V38.6069H104.527ZM105.516 35.2064V34.2829H109.427V35.2064H105.516Z" fill="#1C252D"/>
<path d="M93.2695 38.6069V31.002H96.4745C97.2857 31.002 97.9991 31.1613 98.6147 31.48C99.2376 31.7987 99.7192 32.2441 100.06 32.8163C100.407 33.3884 100.581 34.0512 100.581 34.8044C100.581 35.5577 100.407 36.2204 100.06 36.7926C99.7192 37.3647 99.2376 37.8102 98.6147 38.1288C97.9991 38.4475 97.2857 38.6069 96.4745 38.6069H93.2695ZM94.3559 37.6617H96.4093C97.0394 37.6617 97.5826 37.5422 98.0389 37.3032C98.5024 37.0642 98.861 36.731 99.1145 36.3037C99.3679 35.8691 99.4947 35.3693 99.4947 34.8044C99.4947 34.2322 99.3679 33.7325 99.1145 33.3052C98.861 32.8778 98.5024 32.5447 98.0389 32.3057C97.5826 32.0666 97.0394 31.9471 96.4093 31.9471H94.3559V37.6617Z" fill="#1C252D"/>
<path d="M77.5664 38.6069V31.002H80.9778C81.8541 31.002 82.5277 31.1794 82.9985 31.5343C83.4693 31.882 83.7047 32.36 83.7047 32.9684C83.7047 33.3812 83.6105 33.7289 83.4222 34.0113C83.2411 34.2938 82.9949 34.5111 82.6834 34.6632C82.372 34.8153 82.0352 34.8913 81.6731 34.8913L81.8686 34.5654C82.3032 34.5654 82.687 34.6414 83.0202 34.7935C83.3534 34.9456 83.6177 35.1702 83.8133 35.4671C84.0089 35.7568 84.1066 36.119 84.1066 36.5535C84.1066 37.2054 83.8604 37.7124 83.3679 38.0745C82.8826 38.4294 82.1583 38.6069 81.195 38.6069H77.5664ZM78.6528 37.7269H81.1516C81.7527 37.7269 82.2126 37.6255 82.5313 37.4227C82.85 37.2199 83.0093 36.9012 83.0093 36.4666C83.0093 36.0248 82.85 35.7025 82.5313 35.4997C82.2126 35.2969 81.7527 35.1955 81.1516 35.1955H78.555V34.3155H80.88C81.4304 34.3155 81.8577 34.2141 82.1619 34.0113C82.4661 33.8085 82.6182 33.5043 82.6182 33.0987C82.6182 32.6931 82.4661 32.3889 82.1619 32.1861C81.8577 31.9833 81.4304 31.882 80.88 31.882H78.6528V37.7269Z" fill="#1C252D"/>
<path d="M68.0078 38.6069V31.002H73.3747V31.9471H69.0942V37.6617H73.5268V38.6069H68.0078ZM68.9965 35.2064V34.2829H72.9075V35.2064H68.9965Z" fill="#1C252D"/>
<path d="M55.4016 38.6069L52.8594 31.002H53.9784L56.3142 38.0202H55.7492L58.1719 31.002H59.1715L61.5398 38.0202H60.9966L63.365 31.002H64.3971L61.8549 38.6069H60.7142L58.4979 32.0992H58.7912L56.5641 38.6069H55.4016Z" fill="#1C252D"/>
</svg>
