<svg width="262" height="51" viewBox="0 0 262 51" fill="none" xmlns="http://www.w3.org/2000/svg">
<path d="M46.6931 26.9357C52.9898 34.4592 49.9108 46.4961 40.7637 50.0487C39.9376 50.3691 37.9006 51 37.0799 51H1.56681V29.3252L11.5128 39.0832L36.6767 39.0107C38.5604 38.8592 39.3021 36.7219 38.2364 35.2565L20.243 17.192H36.9421L46.6931 26.9357ZM45.7979 0.0103108C46.6036 -0.0128714 47.9969 0.0103425 48.462 0.0102816L48.462 21.6902L38.5518 12.0394L13.7645 12.0067C12.0347 12.0791 10.8497 13.4452 11.4536 15.1465C11.6636 15.7395 13.2859 17.3605 13.8339 17.9452C18.856 23.3054 24.3812 28.2266 29.4469 33.5499L29.65 33.9602H13.2235L2.93356 23.6653C-3.61535 14.7322 1.30618 1.33046 12.6795 0.155252C23.7148 0.0720959 35.1114 0.0103108 45.7979 0.0103108Z" fill="#356EC3"/>
<path d="M71.1895 25.4013C69.6813 25.4013 68.236 25.2038 66.8535 24.8088C65.4709 24.3958 64.3577 23.8662 63.5139 23.2198L64.9951 19.9341C65.8031 20.5086 66.7547 20.9844 67.8499 21.3615C68.9631 21.7206 70.0853 21.9001 71.2165 21.9001C72.0783 21.9001 72.7696 21.8193 73.2903 21.6577C73.8289 21.4782 74.2239 21.2358 74.4753 20.9306C74.7266 20.6253 74.8523 20.2752 74.8523 19.8802C74.8523 19.3775 74.6548 18.9825 74.2598 18.6952C73.8648 18.39 73.3441 18.1476 72.6977 17.968C72.0514 17.7705 71.3332 17.591 70.5432 17.4294C69.7711 17.2498 68.9901 17.0344 68.2001 16.783C67.428 16.5316 66.7188 16.2085 66.0724 15.8135C65.4261 15.4184 64.8964 14.8978 64.4834 14.2514C64.0884 13.605 63.8909 12.7791 63.8909 11.7736C63.8909 10.6963 64.1782 9.7178 64.7527 8.83801C65.3453 7.94027 66.225 7.23106 67.3921 6.71037C68.5771 6.17173 70.0584 5.90241 71.8359 5.90241C73.0209 5.90241 74.188 6.04604 75.3371 6.33332C76.4862 6.60264 77.5007 7.0156 78.3804 7.5722L77.0338 10.8849C76.154 10.3821 75.2743 10.0141 74.3945 9.78064C73.5147 9.52927 72.6529 9.40359 71.809 9.40359C70.9651 9.40359 70.2738 9.50234 69.7352 9.69984C69.1966 9.89735 68.8105 10.1577 68.5771 10.4809C68.3437 10.7861 68.227 11.1452 68.227 11.5582C68.227 12.0429 68.4245 12.4379 68.8195 12.7432C69.2145 13.0305 69.7352 13.2639 70.3816 13.4434C71.0279 13.623 71.7372 13.8025 72.5092 13.9821C73.2992 14.1616 74.0803 14.3681 74.8523 14.6015C75.6423 14.8349 76.3605 15.1491 77.0069 15.5441C77.6533 15.9391 78.174 16.4598 78.569 17.1062C78.9819 17.7526 79.1884 18.5695 79.1884 19.557C79.1884 20.6164 78.8921 21.5859 78.2996 22.4657C77.7071 23.3455 76.8184 24.0547 75.6334 24.5933C74.4663 25.132 72.985 25.4013 71.1895 25.4013ZM90.2224 25.0781V22.2502L89.9531 21.6308V16.5676C89.9531 15.6698 89.6748 14.9696 89.1182 14.4668C88.5795 13.9641 87.7446 13.7127 86.6135 13.7127C85.8414 13.7127 85.0783 13.8384 84.3242 14.0898C83.5881 14.3232 82.9597 14.6464 82.439 15.0594L80.9308 12.1237C81.7208 11.5671 82.6724 11.1362 83.7856 10.831C84.8988 10.5258 86.03 10.3731 87.1791 10.3731C89.3875 10.3731 91.1022 10.8938 92.3231 11.9352C93.544 12.9766 94.1545 14.6015 94.1545 16.8099V25.0781H90.2224ZM85.8055 25.2936C84.6744 25.2936 83.7048 25.1051 82.8968 24.728C82.0889 24.333 81.4694 23.8033 81.0385 23.139C80.6076 22.4747 80.3921 21.7296 80.3921 20.9036C80.3921 20.0418 80.5986 19.2877 81.0116 18.6413C81.4425 17.995 82.1158 17.4922 83.0315 17.1331C83.9472 16.7561 85.1412 16.5676 86.6135 16.5676H90.4648V19.0184H87.0713C86.0838 19.0184 85.4015 19.18 85.0245 19.5032C84.6654 19.8263 84.4858 20.2303 84.4858 20.7151C84.4858 21.2538 84.6923 21.6847 85.1053 22.0079C85.5362 22.3131 86.1197 22.4657 86.8559 22.4657C87.5561 22.4657 88.1845 22.3041 88.7411 21.9809C89.2977 21.6398 89.7017 21.146 89.9531 20.4997L90.5994 22.4388C90.2942 23.3724 89.7376 24.0816 88.9296 24.5664C88.1217 25.0512 87.0803 25.2936 85.8055 25.2936ZM115.975 10.3731C117.124 10.3731 118.138 10.6066 119.018 11.0734C119.916 11.5223 120.616 12.2225 121.119 13.1741C121.639 14.1077 121.9 15.3107 121.9 16.783V25.0781H117.698V17.4294C117.698 16.2623 117.456 15.4005 116.971 14.8439C116.486 14.2873 115.804 14.009 114.924 14.009C114.314 14.009 113.766 14.1526 113.281 14.4399C112.797 14.7092 112.42 15.1222 112.15 15.6788C111.881 16.2354 111.746 16.9446 111.746 17.8064V25.0781H107.545V17.4294C107.545 16.2623 107.302 15.4005 106.818 14.8439C106.351 14.2873 105.678 14.009 104.798 14.009C104.187 14.009 103.64 14.1526 103.155 14.4399C102.67 14.7092 102.293 15.1222 102.024 15.6788C101.754 16.2354 101.62 16.9446 101.62 17.8064V25.0781H97.4183V10.5886H101.431V14.5476L100.677 13.3896C101.18 12.402 101.889 11.6569 102.805 11.1542C103.738 10.6335 104.798 10.3731 105.983 10.3731C107.311 10.3731 108.47 10.7143 109.457 11.3966C110.462 12.0609 111.127 13.0843 111.45 14.4668L109.969 14.0629C110.454 12.9317 111.226 12.034 112.285 11.3696C113.362 10.7053 114.592 10.3731 115.975 10.3731ZM131.241 25.2936C130.038 25.2936 128.96 25.0602 128.009 24.5933C127.075 24.1265 126.348 23.4173 125.827 22.4657C125.306 21.4961 125.046 20.2662 125.046 18.776V10.5886H129.248V18.1566C129.248 19.3595 129.499 20.2483 130.002 20.8228C130.522 21.3794 131.25 21.6577 132.183 21.6577C132.83 21.6577 133.404 21.5231 133.907 21.2538C134.41 20.9665 134.805 20.5356 135.092 19.961C135.379 19.3685 135.523 18.6324 135.523 17.7526V10.5886H139.724V25.0781H135.738V21.0922L136.465 22.2502C135.981 23.2557 135.262 24.0188 134.311 24.5395C133.377 25.0422 132.354 25.2936 131.241 25.2936ZM150.269 25.2936C148.617 25.2936 147.163 24.9704 145.906 24.324C144.667 23.6777 143.706 22.7979 143.024 21.6847C142.342 20.5535 142.001 19.2697 142.001 17.8334C142.001 16.379 142.333 15.0953 142.997 13.9821C143.679 12.8509 144.604 11.9711 145.771 11.3427C146.938 10.6963 148.258 10.3731 149.73 10.3731C151.149 10.3731 152.423 10.6784 153.554 11.2888C154.704 11.8814 155.61 12.7432 156.275 13.8743C156.939 14.9875 157.271 16.3252 157.271 17.8872C157.271 18.0488 157.262 18.2373 157.244 18.4528C157.226 18.6503 157.208 18.8388 157.19 19.0184H145.421V16.5676H154.982L153.366 17.2947C153.366 16.5406 153.213 15.8853 152.908 15.3287C152.603 14.7721 152.181 14.3412 151.642 14.0359C151.104 13.7127 150.475 13.5511 149.757 13.5511C149.039 13.5511 148.401 13.7127 147.845 14.0359C147.306 14.3412 146.884 14.7811 146.579 15.3556C146.274 15.9122 146.121 16.5765 146.121 17.3486V17.995C146.121 18.785 146.292 19.4852 146.633 20.0957C146.992 20.6882 147.486 21.146 148.114 21.4692C148.761 21.7744 149.515 21.9271 150.376 21.9271C151.149 21.9271 151.822 21.8104 152.396 21.5769C152.989 21.3435 153.528 20.9934 154.012 20.5266L156.248 22.9505C155.583 23.7046 154.748 24.2881 153.743 24.7011C152.738 25.0961 151.579 25.2936 150.269 25.2936ZM159.53 25.0781V5.09444H163.731V25.0781H159.53Z" fill="#356EC3"/>
<path d="M175.311 25.0781V6.22559H182.368C183.966 6.22559 185.339 6.48594 186.488 7.00663C187.637 7.50936 188.517 8.24551 189.128 9.21506C189.756 10.1667 190.07 11.3248 190.07 12.6893C190.07 14.018 189.756 15.1671 189.128 16.1366C188.517 17.0882 187.637 17.8244 186.488 18.3451C185.339 18.8658 183.966 19.1261 182.368 19.1261H176.416L177.304 18.1835V25.0781H175.311ZM177.304 18.3451L176.416 17.3755H182.314C184.199 17.3755 185.627 16.9715 186.596 16.1636C187.584 15.3376 188.077 14.1796 188.077 12.6893C188.077 11.1811 187.584 10.0141 186.596 9.18813C185.627 8.36221 184.199 7.94925 182.314 7.94925H176.416L177.304 7.00663V18.3451ZM202.166 25.0781V21.954L202.085 21.4423V16.2174C202.085 15.0145 201.744 14.0898 201.062 13.4434C200.398 12.797 199.401 12.4739 198.073 12.4739C197.157 12.4739 196.286 12.6265 195.46 12.9317C194.634 13.2369 193.934 13.6409 193.359 14.1437L192.498 12.7162C193.216 12.1058 194.078 11.639 195.083 11.3158C196.089 10.9746 197.148 10.8041 198.261 10.8041C200.092 10.8041 201.502 11.2619 202.489 12.1776C203.495 13.0753 203.998 14.4489 203.998 16.2982V25.0781H202.166ZM197.292 25.2128C196.232 25.2128 195.308 25.0422 194.518 24.7011C193.745 24.342 193.153 23.8572 192.74 23.2467C192.327 22.6183 192.121 21.9001 192.121 21.0922C192.121 20.356 192.291 19.6917 192.632 19.0992C192.991 18.4887 193.566 18.0039 194.356 17.6448C195.164 17.2678 196.241 17.0793 197.588 17.0793H202.463V18.5067H197.642C196.277 18.5067 195.325 18.7491 194.787 19.2338C194.266 19.7186 194.006 20.3201 194.006 21.0383C194.006 21.8463 194.32 22.4926 194.948 22.9774C195.577 23.4622 196.457 23.7046 197.588 23.7046C198.665 23.7046 199.59 23.4622 200.362 22.9774C201.152 22.4747 201.726 21.7565 202.085 20.8228L202.516 22.1425C202.157 23.0762 201.529 23.8213 200.631 24.3779C199.751 24.9345 198.638 25.2128 197.292 25.2128ZM196.564 8.73028L200.254 5.39069H202.813L198.45 8.73028H196.564ZM214.282 25.2128C212.935 25.2128 211.723 24.9076 210.646 24.2971C209.586 23.6866 208.751 22.8428 208.141 21.7655C207.531 20.6702 207.225 19.4134 207.225 17.995C207.225 16.5586 207.531 15.3017 208.141 14.2245C208.751 13.1472 209.586 12.3123 210.646 11.7198C211.723 11.1093 212.935 10.8041 214.282 10.8041C215.52 10.8041 216.625 11.0824 217.594 11.639C218.582 12.1956 219.363 13.0125 219.937 14.0898C220.53 15.1491 220.826 16.4508 220.826 17.995C220.826 19.5211 220.539 20.8228 219.964 21.9001C219.39 22.9774 218.609 23.8033 217.621 24.3779C216.652 24.9345 215.538 25.2128 214.282 25.2128ZM214.416 23.5161C215.422 23.5161 216.319 23.2916 217.109 22.8428C217.917 22.3759 218.546 21.7296 218.995 20.9036C219.461 20.0598 219.695 19.0902 219.695 17.995C219.695 16.8818 219.461 15.9122 218.995 15.0863C218.546 14.2604 217.917 13.623 217.109 13.1741C216.319 12.7073 215.422 12.4739 214.416 12.4739C213.429 12.4739 212.54 12.7073 211.75 13.1741C210.96 13.623 210.331 14.2604 209.865 15.0863C209.398 15.9122 209.164 16.8818 209.164 17.995C209.164 19.0902 209.398 20.0598 209.865 20.9036C210.331 21.7296 210.96 22.3759 211.75 22.8428C212.54 23.2916 213.429 23.5161 214.416 23.5161ZM219.749 25.0781V20.8228L219.937 17.968L219.668 15.1132V5.09444H221.58V25.0781H219.749ZM232.211 25.2128C231.008 25.2128 229.958 24.9884 229.06 24.5395C228.162 24.0906 227.462 23.4173 226.959 22.5196C226.475 21.6218 226.232 20.4997 226.232 19.153V10.9387H228.144V18.9376C228.144 20.4458 228.513 21.5859 229.249 22.358C230.003 23.1121 231.053 23.4891 232.4 23.4891C233.387 23.4891 234.24 23.2916 234.958 22.8966C235.694 22.4837 236.251 21.8911 236.628 21.1191C237.023 20.347 237.221 19.4224 237.221 18.3451V10.9387H239.133V25.0781H237.301V21.1999L237.598 21.9001C237.149 22.9415 236.449 23.7584 235.497 24.351C234.563 24.9255 233.468 25.2128 232.211 25.2128ZM252.784 25.0781V21.954L252.703 21.4423V16.2174C252.703 15.0145 252.362 14.0898 251.68 13.4434C251.015 12.797 250.019 12.4739 248.69 12.4739C247.775 12.4739 246.904 12.6265 246.078 12.9317C245.252 13.2369 244.552 13.6409 243.977 14.1437L243.115 12.7162C243.834 12.1058 244.695 11.639 245.701 11.3158C246.706 10.9746 247.766 10.8041 248.879 10.8041C250.71 10.8041 252.12 11.2619 253.107 12.1776C254.113 13.0753 254.615 14.4489 254.615 16.2982V25.0781H252.784ZM247.909 25.2128C246.85 25.2128 245.925 25.0422 245.135 24.7011C244.363 24.342 243.771 23.8572 243.358 23.2467C242.945 22.6183 242.738 21.9001 242.738 21.0922C242.738 20.356 242.909 19.6917 243.25 19.0992C243.609 18.4887 244.184 18.0039 244.974 17.6448C245.782 17.2678 246.859 17.0793 248.206 17.0793H253.08V18.5067H248.259C246.895 18.5067 245.943 18.7491 245.405 19.2338C244.884 19.7186 244.624 20.3201 244.624 21.0383C244.624 21.8463 244.938 22.4926 245.566 22.9774C246.195 23.4622 247.074 23.7046 248.206 23.7046C249.283 23.7046 250.208 23.4622 250.98 22.9774C251.77 22.4747 252.344 21.7565 252.703 20.8228L253.134 22.1425C252.775 23.0762 252.147 23.8213 251.249 24.3779C250.369 24.9345 249.256 25.2128 247.909 25.2128Z" fill="white"/>
<path d="M66.1909 45.418L63.1725 36.3886H64.5011L67.2745 44.7214H66.6037L69.4802 36.3886H70.6669L73.4789 44.7214H72.834L75.646 36.3886H76.8714L73.853 45.418H72.4986L69.8672 37.6914H70.2154L67.5711 45.418H66.1909ZM82.3319 40.2841H86.9756V41.3806H82.3319V40.2841ZM82.448 44.2957H87.7109V45.418H81.1581V36.3886H87.5303V37.5108H82.448V44.2957ZM92.5083 45.418V36.3886H96.5586C97.5992 36.3886 98.3989 36.5993 98.9579 37.0207C99.5168 37.4334 99.7963 38.001 99.7963 38.7233C99.7963 39.2135 99.6845 39.6263 99.4609 39.9616C99.2459 40.297 98.9536 40.555 98.5838 40.7356C98.214 40.9162 97.8141 41.0065 97.3842 41.0065L97.6164 40.6195C98.1323 40.6195 98.5881 40.7098 98.9837 40.8904C99.3792 41.071 99.6931 41.3376 99.9253 41.6901C100.157 42.0341 100.274 42.4641 100.274 42.98C100.274 43.754 99.9812 44.3559 99.3964 44.7859C98.8203 45.2073 97.9603 45.418 96.8166 45.418H92.5083ZM93.7982 44.3731H96.765C97.4788 44.3731 98.0248 44.2527 98.4032 44.012C98.7816 43.7712 98.9708 43.3928 98.9708 42.8768C98.9708 42.3523 98.7816 41.9696 98.4032 41.7288C98.0248 41.488 97.4788 41.3677 96.765 41.3677H93.6821V40.3228H96.4425C97.0961 40.3228 97.6035 40.2024 97.9646 39.9616C98.3258 39.7209 98.5064 39.3597 98.5064 38.8781C98.5064 38.3966 98.3258 38.0354 97.9646 37.7946C97.6035 37.5538 97.0961 37.4334 96.4425 37.4334H93.7982V44.3731ZM111.153 45.418V36.3886H114.958C115.921 36.3886 116.768 36.5778 117.499 36.9562C118.238 37.3345 118.81 37.8634 119.214 38.5427C119.627 39.2221 119.834 40.0089 119.834 40.9033C119.834 41.7976 119.627 42.5845 119.214 43.2638C118.81 43.9432 118.238 44.472 117.499 44.8504C116.768 45.2288 115.921 45.418 114.958 45.418H111.153ZM112.442 44.2957H114.88C115.629 44.2957 116.273 44.1539 116.815 43.8701C117.366 43.5863 117.791 43.1907 118.092 42.6834C118.393 42.1674 118.544 41.574 118.544 40.9033C118.544 40.2239 118.393 39.6306 118.092 39.1232C117.791 38.6158 117.366 38.2203 116.815 37.9365C116.273 37.6527 115.629 37.5108 114.88 37.5108H112.442V44.2957ZM125.692 40.2841H130.336V41.3806H125.692V40.2841ZM125.808 44.2957H131.071V45.418H124.518V36.3886H130.89V37.5108H125.808V44.2957ZM138.5 45.5212C137.812 45.5212 137.154 45.418 136.526 45.2116C135.899 44.9966 135.404 44.7214 135.043 44.386L135.52 43.3799C135.864 43.6809 136.303 43.9303 136.836 44.1281C137.369 44.3258 137.924 44.4247 138.5 44.4247C139.024 44.4247 139.45 44.3645 139.777 44.2442C140.104 44.1238 140.344 43.9604 140.499 43.754C140.654 43.539 140.731 43.2982 140.731 43.0316C140.731 42.7221 140.628 42.4727 140.422 42.2835C140.224 42.0943 139.962 41.9438 139.635 41.832C139.317 41.7116 138.964 41.6084 138.577 41.5224C138.19 41.4364 137.799 41.3376 137.403 41.2258C137.016 41.1054 136.66 40.9549 136.333 40.7743C136.015 40.5937 135.757 40.3529 135.559 40.0519C135.361 39.7424 135.262 39.3468 135.262 38.8652C135.262 38.4009 135.383 37.9752 135.623 37.5882C135.873 37.1926 136.251 36.8788 136.758 36.6466C137.274 36.4058 137.928 36.2854 138.719 36.2854C139.244 36.2854 139.764 36.3542 140.28 36.4918C140.796 36.6294 141.243 36.8272 141.621 37.0851L141.196 38.1171C140.809 37.8591 140.4 37.6742 139.97 37.5624C139.54 37.442 139.123 37.3818 138.719 37.3818C138.212 37.3818 137.795 37.4463 137.468 37.5753C137.141 37.7043 136.9 37.8763 136.746 38.0913C136.599 38.3063 136.526 38.547 136.526 38.8136C136.526 39.1318 136.625 39.3855 136.823 39.5747C137.029 39.7639 137.292 39.9144 137.61 40.0261C137.937 40.1379 138.293 40.2411 138.68 40.3357C139.067 40.4217 139.454 40.5206 139.841 40.6324C140.237 40.7442 140.594 40.8904 140.912 41.071C141.239 41.2516 141.501 41.4923 141.699 41.7933C141.897 42.0943 141.996 42.4813 141.996 42.9542C141.996 43.41 141.871 43.8357 141.621 44.2313C141.372 44.6182 140.985 44.9321 140.461 45.1729C139.945 45.4051 139.291 45.5212 138.5 45.5212ZM146.589 45.418V36.3886H147.879V45.418H146.589ZM157.367 45.5212C156.67 45.5212 156.03 45.4094 155.445 45.1858C154.86 44.9536 154.353 44.6311 153.923 44.2184C153.493 43.797 153.158 43.3068 152.917 42.7479C152.676 42.1889 152.556 41.574 152.556 40.9033C152.556 40.2325 152.676 39.6177 152.917 39.0587C153.158 38.4998 153.493 38.0139 153.923 37.6011C154.361 37.1797 154.873 36.8573 155.458 36.6337C156.043 36.4015 156.688 36.2854 157.393 36.2854C158.106 36.2854 158.76 36.4015 159.353 36.6337C159.947 36.8659 160.45 37.2141 160.863 37.6785L160.063 38.4783C159.693 38.1171 159.289 37.8548 158.85 37.6914C158.42 37.5194 157.952 37.4334 157.444 37.4334C156.928 37.4334 156.447 37.5194 156 37.6914C155.561 37.8634 155.178 38.1042 154.852 38.4138C154.533 38.7233 154.284 39.0931 154.103 39.5231C153.931 39.9445 153.845 40.4045 153.845 40.9033C153.845 41.3934 153.931 41.8535 154.103 42.2835C154.284 42.7049 154.533 43.0746 154.852 43.3928C155.178 43.7024 155.561 43.9432 156 44.1152C156.438 44.2871 156.915 44.3731 157.431 44.3731C157.913 44.3731 158.373 44.3 158.812 44.1539C159.259 43.9991 159.672 43.7454 160.05 43.3928L160.785 44.3731C160.338 44.7515 159.813 45.0396 159.211 45.2374C158.618 45.4266 158.003 45.5212 157.367 45.5212ZM159.547 44.2055V40.8517H160.785V44.3731L159.547 44.2055ZM165.964 45.418V36.3886H167.021L172.994 43.8056H172.439V36.3886H173.729V45.418H172.671L166.699 38.001H167.254V45.418H165.964ZM180.314 40.2841H184.958V41.3806H180.314V40.2841ZM180.43 44.2957H185.693V45.418H179.14V36.3886H185.513V37.5108H180.43V44.2957ZM190.491 45.418V36.3886H194.012C194.803 36.3886 195.478 36.5133 196.037 36.7627C196.596 37.0121 197.026 37.3732 197.327 37.8462C197.628 38.3192 197.779 38.8824 197.779 39.536C197.779 40.1895 197.628 40.7528 197.327 41.2258C197.026 41.6901 196.596 42.047 196.037 42.2964C195.478 42.5458 194.803 42.6705 194.012 42.6705H191.2L191.781 42.0771V45.418H190.491ZM196.527 45.418L194.231 42.1416H195.612L197.933 45.418H196.527ZM191.781 42.2061L191.2 41.574H193.973C194.799 41.574 195.422 41.3977 195.844 41.0452C196.274 40.684 196.489 40.1809 196.489 39.536C196.489 38.891 196.274 38.3923 195.844 38.0397C195.422 37.6871 194.799 37.5108 193.973 37.5108H191.2L191.781 36.8659V42.2061Z" fill="white"/>
</svg>
